<svg width="165" height="38" viewBox="0 0 165 38" fill="none" xmlns="http://www.w3.org/2000/svg">
<path d="M40.2984 0V5.39424C37.5308 6.29747 34.7583 7.10471 31.9756 7.82636C29.7376 8.41409 27.495 8.93972 25.2469 9.40795C16.9032 11.147 8.49296 12.1025 0.0256483 12.27C0.0101147 11.9069 0 11.539 0 11.1711V0H40.2984Z" fill="#0065FE"/>
<path d="M21.193 14.4917C16.8977 19.6137 12.2322 24.3487 7.20111 28.6874C3.88846 25.0224 1.63029 20.8751 0.611572 16.4986C7.67976 16.2643 14.5417 15.5906 21.193 14.4917Z" fill="#0065FE"/>
<path d="M40.298 9.9527V11.1711C40.298 16.6036 38.395 21.8502 34.9277 26.4704C31.4608 31.091 26.4196 35.0758 20.149 38C16.4039 36.2559 13.0963 34.1343 10.3082 31.7263C17.0058 25.9495 22.9216 19.7715 28.0448 13.1874C32.2169 12.2892 36.3012 11.2094 40.298 9.9527Z" fill="#0065FE"/>
<path d="M58.1748 12.51H50.5138V9.03436H69.7561V12.51H62.0651V28.4977H58.1748V12.51ZM76.2213 28.8035C73.6677 28.8035 71.6526 28.1456 70.1762 26.8295C68.7001 25.5135 67.9618 23.7154 67.9618 21.4353C67.9618 19.9151 68.301 18.5991 68.9794 17.487C69.6777 16.3562 70.6552 15.4943 71.912 14.9012C73.1688 14.3081 74.6351 14.0114 76.3109 14.0114C77.9868 14.0114 79.4433 14.3081 80.6802 14.9012C81.9172 15.4943 82.8745 16.3468 83.5529 17.4592C84.2313 18.5527 84.5705 19.8598 84.5705 21.3796C84.5705 22.8997 84.2313 24.2158 83.5529 25.3278C82.8745 26.4402 81.8969 27.3021 80.6203 27.9137C79.3635 28.5071 77.8972 28.8035 76.2213 28.8035ZM76.2513 25.634C77.7274 25.634 78.8747 25.2537 79.6926 24.4937C80.5104 23.7338 80.9194 22.6957 80.9194 21.3796C80.9194 20.082 80.5104 19.0532 79.6926 18.2933C78.8747 17.5334 77.7274 17.1534 76.2513 17.1534C74.7749 17.1534 73.6276 17.5334 72.8097 18.2933C72.0117 19.0532 71.6129 20.0914 71.6129 21.4074C71.6129 22.7235 72.0117 23.7617 72.8097 24.5216C73.6077 25.2631 74.755 25.634 76.2513 25.634ZM83.3639 14.5118H87.6133L92.2517 23.8543L96.9502 14.5118H101.05L93.6884 28.4977H90.6959L83.3639 14.5118ZM105.832 28.581C103.976 28.581 102.52 28.201 101.463 27.4411C100.405 26.6812 99.8766 25.5504 99.8766 24.049C99.8766 22.8071 100.266 21.8616 101.044 21.2128C101.822 20.564 102.839 20.1283 104.096 19.9061C105.353 19.6835 106.879 19.563 108.675 19.5446L110.889 19.5167V19.3221C110.889 18.4695 110.65 17.8855 110.171 17.5703C109.692 17.2551 108.844 17.0977 107.628 17.0977C106.61 17.0977 105.812 17.2367 105.233 17.5149C104.675 17.7928 104.385 18.3117 104.366 19.072H100.655C100.675 17.2739 101.303 15.9857 102.54 15.207C103.777 14.4286 105.473 14.0298 107.628 14.0114C110.001 14.0298 111.737 14.484 112.834 15.3738C113.932 16.2636 114.48 17.6075 114.48 19.4056V28.4977H110.889V26.746C110.311 27.3021 109.592 27.7469 108.735 28.0805C107.897 28.4141 106.929 28.581 105.832 28.581ZM106.52 25.884C107.817 25.884 108.864 25.6524 109.662 25.1889C110.48 24.7069 110.889 24.0581 110.889 23.2424V21.9358L108.645 22.0193C106.73 22.0932 105.393 22.2973 104.635 22.6309C103.877 22.9461 103.498 23.4465 103.498 24.1323C103.498 24.6884 103.747 25.1241 104.246 25.4393C104.744 25.7357 105.503 25.884 106.52 25.884ZM115.747 14.2339H119.367V15.9578C119.886 15.3459 120.644 14.8733 121.642 14.5397C122.639 14.1876 123.657 14.0114 124.694 14.0114C126.53 14.0114 127.936 14.4934 128.914 15.4574C129.911 16.4026 130.41 17.7096 130.41 19.3778V28.4977H126.759V20.1561C126.759 19.1368 126.549 18.3953 126.131 17.9318C125.712 17.4498 124.964 17.2088 123.886 17.2088C123.208 17.2088 122.52 17.3108 121.821 17.5149C121.123 17.7186 120.535 18.0432 120.056 18.488C119.597 18.9142 119.367 19.4519 119.367 20.1008V28.4977H115.747V14.2339ZM139.44 28.8035C136.806 28.8035 134.751 28.1641 133.275 26.8849C131.819 25.5873 131.09 23.7802 131.09 21.4632C131.09 19.1274 131.848 17.3018 133.365 15.9857C134.881 14.6696 136.936 14.0114 139.529 14.0114C141.804 14.0114 143.659 14.5676 145.095 15.6796C146.532 16.7919 147.36 18.3117 147.579 20.2397H143.928C143.689 19.2757 143.19 18.5249 142.432 17.9875C141.694 17.4313 140.696 17.1534 139.44 17.1534C138.103 17.1534 136.986 17.5055 136.088 18.21C135.19 18.9142 134.741 19.9893 134.741 21.4353C134.741 22.5846 135.1 23.5761 135.818 24.4105C136.557 25.2261 137.764 25.634 139.44 25.634C140.736 25.634 141.764 25.3372 142.522 24.7441C143.3 24.1507 143.769 23.4187 143.928 22.5473H147.639C147.34 24.4938 146.462 26.023 145.006 27.1353C143.569 28.2473 141.714 28.8035 139.44 28.8035ZM156.621 28.8035C154.107 28.8035 152.112 28.1547 150.636 26.8571C149.159 25.5598 148.421 23.7617 148.421 21.4632C148.421 19.1274 149.169 17.3018 150.666 15.9857C152.182 14.6696 154.227 14.0114 156.8 14.0114C158.456 14.0114 159.903 14.3081 161.139 14.9012C162.376 15.4758 163.324 16.3193 163.982 17.4313C164.661 18.5437 165 19.8688 165 21.4074V22.1862H152.132C152.232 23.1871 152.671 24.0118 153.449 24.6606C154.247 25.3094 155.334 25.634 156.71 25.634C158.785 25.634 160.132 24.911 160.751 23.465H164.761C164.302 25.152 163.384 26.468 162.007 27.4132C160.631 28.34 158.835 28.8035 156.621 28.8035ZM161.08 19.9893C160.86 19.1183 160.392 18.4322 159.673 17.9318C158.955 17.4129 157.968 17.1534 156.71 17.1534C155.753 17.1534 154.865 17.385 154.047 17.8485C153.249 18.2933 152.69 19.0069 152.371 19.9893H161.08Z" fill="#222222"/>
</svg>
