<svg width="206" height="51" viewBox="0 0 206 51" fill="none" xmlns="http://www.w3.org/2000/svg">
<path d="M50.2522 0V7.23964C46.8011 8.45188 43.3437 9.53528 39.8736 10.5038C37.0829 11.2926 34.2864 11.998 31.483 12.6265C21.0783 14.9604 10.5907 16.2429 0.0319836 16.4677C0.012613 15.9803 0 15.4865 0 14.9928V0H50.2522Z" fill="#0065FE"/>
<path d="M26.4278 19.4494C21.0716 26.3237 15.2537 32.6786 8.97987 38.5015C4.84899 33.5827 2.03304 28.0166 0.762695 22.1428C9.57676 21.8284 18.1336 20.9243 26.4278 19.4494Z" fill="#0065FE"/>
<path d="M50.2517 13.3576V14.9928C50.2517 22.2838 47.8786 29.3253 43.5549 35.5261C39.2317 41.7274 32.9453 47.0755 25.1259 51C20.4557 48.6593 16.3312 45.8119 12.8544 42.5801C21.2062 34.827 28.5833 26.5354 34.972 17.6989C40.1745 16.4934 45.2676 15.0442 50.2517 13.3576Z" fill="#0065FE"/>
<path d="M72.5441 16.7898H62.9908V12.1251H86.986V16.7898H77.3953V38.247H72.5441V16.7898ZM95.0482 38.6573C91.8638 38.6573 89.351 37.7744 87.5099 36.0081C85.6693 34.2417 84.7485 31.8285 84.7485 28.7684C84.7485 26.7282 85.1715 24.9619 86.0175 23.4695C86.8883 21.9518 88.1073 20.795 89.6745 19.999C91.2417 19.203 93.0702 18.8048 95.16 18.8048C97.2497 18.8048 99.0661 19.203 100.609 19.999C102.151 20.795 103.345 21.9392 104.191 23.4321C105.037 24.8997 105.46 26.6539 105.46 28.6937C105.46 30.7339 105.037 32.5002 104.191 33.9926C103.345 35.4855 102.126 36.6424 100.534 37.4631C98.9665 38.2596 97.138 38.6573 95.0482 38.6573ZM95.0856 34.4035C96.9263 34.4035 98.357 33.8931 99.3769 32.8732C100.397 31.8533 100.907 30.46 100.907 28.6937C100.907 26.9521 100.397 25.5714 99.3769 24.5515C98.357 23.5316 96.9263 23.0217 95.0856 23.0217C93.2445 23.0217 91.8138 23.5316 90.7939 24.5515C89.7988 25.5714 89.3015 26.9647 89.3015 28.7311C89.3015 30.4974 89.7988 31.8907 90.7939 32.9106C91.789 33.9057 93.2198 34.4035 95.0856 34.4035ZM103.955 19.4764H109.254L115.038 32.015L120.897 19.4764H126.01L116.83 38.247H113.098L103.955 19.4764ZM131.973 38.3587C129.659 38.3587 127.843 37.8487 126.525 36.8288C125.206 35.809 124.546 34.2913 124.546 32.2763C124.546 30.6095 125.032 29.3405 126.002 28.4698C126.972 27.599 128.241 27.0143 129.809 26.7161C131.376 26.4174 133.279 26.2557 135.518 26.2309L138.279 26.1935V25.9322C138.279 24.788 137.981 24.0042 137.384 23.5812C136.786 23.1582 135.729 22.9469 134.212 22.9469C132.943 22.9469 131.948 23.1334 131.226 23.5069C130.53 23.8798 130.169 24.5763 130.144 25.5966H125.517C125.542 23.1834 126.325 21.4545 127.868 20.4094C129.41 19.3647 131.525 18.8295 134.212 18.8048C137.172 18.8295 139.337 19.439 140.705 20.6333C142.073 21.8275 142.758 23.6312 142.758 26.0444V38.247H138.279V35.8959C137.558 36.6424 136.662 37.2392 135.593 37.687C134.548 38.1348 133.341 38.3587 131.973 38.3587ZM132.831 34.7391C134.448 34.7391 135.754 34.4282 136.749 33.8061C137.769 33.1592 138.279 32.2885 138.279 31.1938V29.4401L135.48 29.5523C133.092 29.6514 131.425 29.9253 130.48 30.373C129.535 30.796 129.062 31.4677 129.062 32.388C129.062 33.1345 129.373 33.7192 129.995 34.1422C130.617 34.54 131.562 34.7391 132.831 34.7391ZM144.336 19.1034H148.852V21.4171C149.498 20.5959 150.444 19.9616 151.688 19.5138C152.932 19.0413 154.201 18.8048 155.494 18.8048C157.783 18.8048 159.537 19.4516 160.756 20.7454C162 22.014 162.622 23.7681 162.622 26.007V38.247H158.069V27.0517C158.069 25.6836 157.808 24.6885 157.285 24.0663C156.763 23.4195 155.83 23.096 154.487 23.096C153.641 23.096 152.782 23.233 151.912 23.5069C151.041 23.7803 150.307 24.2159 149.71 24.8128C149.138 25.3849 148.852 26.1066 148.852 26.9773V38.247H144.336V19.1034ZM173.882 38.6573C170.598 38.6573 168.035 37.7992 166.194 36.0824C164.378 34.3409 163.47 31.9155 163.47 28.8058C163.47 25.671 164.415 23.2208 166.306 21.4545C168.197 19.6881 170.759 18.8048 173.993 18.8048C176.829 18.8048 179.143 19.5512 180.934 21.0436C182.726 22.5365 183.758 24.5763 184.032 27.1638H179.479C179.181 25.8701 178.558 24.8623 177.613 24.1411C176.692 23.3947 175.449 23.0217 173.882 23.0217C172.215 23.0217 170.821 23.4942 169.702 24.4398C168.583 25.3849 168.023 26.8278 168.023 28.7684C168.023 30.3109 168.47 31.6416 169.366 32.7615C170.287 33.8561 171.792 34.4035 173.882 34.4035C175.499 34.4035 176.78 34.0052 177.725 33.2093C178.695 32.4128 179.28 31.4303 179.479 30.2609H184.106C183.733 32.8732 182.638 34.9256 180.822 36.4185C179.031 37.9109 176.718 38.6573 173.882 38.6573ZM195.307 38.6573C192.172 38.6573 189.684 37.7866 187.843 36.045C186.002 34.3039 185.082 31.8907 185.082 28.8058C185.082 25.671 186.015 23.2208 187.881 21.4545C189.771 19.6881 192.321 18.8048 195.531 18.8048C197.596 18.8048 199.399 19.203 200.941 19.999C202.484 20.7702 203.666 21.9022 204.487 23.3947C205.333 24.8876 205.756 26.6661 205.756 28.7311V29.7762H189.709C189.833 31.1195 190.381 32.2263 191.351 33.0971C192.346 33.9679 193.702 34.4035 195.418 34.4035C198.006 34.4035 199.685 33.4331 200.457 31.4925H205.457C204.885 33.7566 203.74 35.5229 202.024 36.7915C200.307 38.0352 198.068 38.6573 195.307 38.6573ZM200.867 26.8278C200.593 25.6588 200.009 24.738 199.113 24.0663C198.217 23.3699 196.986 23.0217 195.418 23.0217C194.225 23.0217 193.117 23.3325 192.098 23.9546C191.102 24.5515 190.406 25.5092 190.008 26.8278H200.867Z" fill="white"/>
</svg>
